<?xml version="1.0" encoding="UTF-8" standalone="no"?>
<svg
   xmlns:dc="http://purl.org/dc/elements/1.1/"
   xmlns:cc="http://creativecommons.org/ns#"
   xmlns:rdf="http://www.w3.org/1999/02/22-rdf-syntax-ns#"
   xmlns:svg="http://www.w3.org/2000/svg"
   xmlns="http://www.w3.org/2000/svg"
   xmlns:sodipodi="http://sodipodi.sourceforge.net/DTD/sodipodi-0.dtd"
   xmlns:inkscape="http://www.inkscape.org/namespaces/inkscape"
   version="1.1"
   width="850.39368"
   height="850.39368"
   id="svg2"
   inkscape:version="0.91 r13725"
   viewBox="0 0 850.39368 850.39368"
   sodipodi:docname="Logo - CHARLESHOPPE Hipnoterapia Avançada.svg">
  <metadata
     id="metadata74">
    <rdf:RDF>
      <cc:Work
         rdf:about="">
        <dc:format>image/svg+xml</dc:format>
        <dc:type
           rdf:resource="http://purl.org/dc/dcmitype/StillImage" />
        <dc:title></dc:title>
      </cc:Work>
    </rdf:RDF>
  </metadata>
  <defs
     id="defs72" />
  <sodipodi:namedview
     pagecolor="#ffffff"
     bordercolor="#666666"
     borderopacity="1"
     objecttolerance="10"
     gridtolerance="10"
     guidetolerance="10"
     inkscape:pageopacity="0"
     inkscape:pageshadow="2"
     inkscape:window-width="1280"
     inkscape:window-height="974"
     id="namedview70"
     showgrid="false"
     inkscape:zoom="0.27751853"
     inkscape:cx="972.90802"
     inkscape:cy="425.19684"
     inkscape:window-x="0"
     inkscape:window-y="0"
     inkscape:window-maximized="1"
     inkscape:current-layer="svg2" />
  <g
     id="Layer1000">
    <path
       d="m 377.2489,473.1504 c -6.1678,0.5415 -18.5406,-9.6234 -20.2088,-12.5534 7.4561,-0.0773 12.6473,0.8926 15.118,-4.4138 5.3798,-11.5586 3.73,-37.8915 0.0558,-48.9662 -1.8696,-5.6344 -6.8267,-5.1516 -13.9476,-5.0821 l -49.8622,0.3692 c -4.8215,0.0213 -5.9135,-0.1909 -5.6352,-4.4414 0.2778,-4.2504 43.1468,-0.619 55.4909,-0.655 11.4446,-0.033 13.6252,-0.5068 15.3106,-10.7609 1.534,-9.3279 3.541,-37.3975 -2.8854,-44.8121 -3.6789,-4.2453 -17.3444,-2.7485 -24.463,-2.7053 -8.3067,0.0502 -54.5139,2.1502 -55.7921,-3.738 -1.4547,-6.6999 74.0526,2.2576 80.0159,-3.1265 7.49,-6.7624 3.9572,-35.4211 2.5569,-44.4926 -1.5503,-10.0462 -2.5368,-11.7357 -14.3056,-11.6174 -9.4959,0.0953 -50.0954,1.3033 -55.9202,-0.1265 -3.9896,-0.9793 0.1652,-4.2698 4.4237,-4.4472 3.2078,-0.1329 7.0711,0.0262 10.3699,0.006 l 39.5203,-0.2411 c 7.1491,-0.003 12.058,0.5785 14.4102,-4.4927 3.1112,-6.707 3.6852,-25.3283 2.8502,-32.8701 -2.8704,-25.9332 -3.8107,-18.3618 -15.6841,-21.8487 2.0932,-4.1313 11.6801,-5.3257 14.4163,-10.4024 4.4254,-8.2124 4.3448,-29.1334 -6.7727,-29.668 -11.7318,-0.5641 -28.6365,7.9187 -36.8386,14.3038 -2.9535,2.2989 -7.0993,7.5981 -8.7324,8.4954 -1.9117,1.0505 -4.7603,1.5006 -6.2959,2.1317 -12.589,5.1731 -23.0523,17.161 -27.7298,29.7824 -4.9864,13.4545 6.3244,13.0911 18.1167,13.019 6.7066,-0.0408 34.2413,-2.2008 35.1977,0.3853 0.9564,2.5859 -3.2253,4.3493 -9.0973,4.3611 -14.9134,0.0292 -30.2545,-0.349 -45.1041,0.2646 -12.9129,0.5341 -21.7506,22.2993 -24.4344,33.0781 -7.8848,31.6655 -2.5419,25.8196 57.0615,25.309 16.8724,-0.1521 30.3315,1.6752 19.022,4.5137 -7.7074,0.7302 -21.8483,0.2212 -30.0734,0.1544 -7.4614,-0.0605 -38.5578,-0.6692 -44.9636,0.5128 -14.4332,2.6632 -13.6684,39.1244 -6.509,52.7539 3.9756,7.5685 13.894,5.3953 23.9834,5.3532 7.1045,-0.0301 61.8071,-3.3832 60.6203,3.0341 -0.686,3.709 -47.5277,1.3664 -56.655,1.4496 -8.6287,0.0784 -19.961,-1.3505 -23.7264,4.0674 -7.7155,11.102 7.8075,52.2596 23.2429,54.3158 14.1044,1.8791 53.6144,-3.708 57.0447,0.2234 3.4302,3.9315 -3.0774,4.2196 -8.1524,4.2171 -7.758,-0.004 -42.1993,-1.5916 -44.5968,1.0821 -3.6019,4.0173 0.1127,8.4104 2.8339,12.9002 2.4613,4.0614 4.8892,7.5147 7.5795,10.9163 22.0279,27.8548 37.9515,26.5056 45.4754,31.3456 6.3041,10.1601 14.3999,13.2463 33.6693,18.2659 l 0,-35.1502 z"
       style="fill:#002e51;fill-rule:evenodd"
       id="path5"
       inkscape:connector-curvature="0" />
    <path
       d="m 385.2027,202.3042 26.9656,0 0,26.966 -26.9656,0 0,-26.966 z"
       style="fill:#002e51;fill-rule:evenodd"
       id="path7"
       inkscape:connector-curvature="0" />
    <path
       d="m 415.6736,233.2204 26.9655,0 0,26.9655 -26.9655,0 0,-26.9655 z"
       style="fill:#002e51;fill-rule:evenodd"
       id="path9"
       inkscape:connector-curvature="0" />
    <path
       d="m 446.9806,233.2204 26.9656,0 0,26.9655 -26.9656,0 0,-26.9655 z"
       style="fill:#415d82;fill-rule:evenodd"
       id="path11"
       inkscape:connector-curvature="0" />
    <path
       d="m 568.0982,326.7877 26.9659,0 0,26.9655 -26.9659,0 0,-26.9655 z"
       style="fill:#415d82;fill-rule:evenodd"
       id="path13"
       inkscape:connector-curvature="0" />
    <path
       d="m 446.9806,202.3042 26.9656,0 0,26.966 -26.9656,0 0,-26.966 z"
       style="fill:#002e51;fill-rule:evenodd"
       id="path15"
       inkscape:connector-curvature="0" />
    <path
       d="m 385.2027,171.1624 26.9656,0 0,26.9655 -26.9656,0 0,-26.9655 z"
       style="fill:#004394;fill-rule:evenodd"
       id="path17"
       inkscape:connector-curvature="0" />
    <path
       d="m 446.9806,264.5194 26.9656,0 0,26.9656 -26.9656,0 0,-26.9656 z"
       style="fill:#002e51;fill-rule:evenodd"
       id="path19"
       inkscape:connector-curvature="0" />
    <path
       d="m 415.6736,450.6255 26.9655,0 0,26.9659 -26.9655,0 0,-26.9659 z"
       style="fill:#415d82;fill-rule:evenodd"
       id="path21"
       inkscape:connector-curvature="0" />
    <path
       d="m 477.6758,264.5194 26.9655,0 0,26.9656 -26.9655,0 0,-26.9656 z"
       style="fill:#004394;fill-rule:evenodd"
       id="path23"
       inkscape:connector-curvature="0" />
    <path
       d="m 477.6758,326.7877 26.966,0 0,26.9655 -26.966,0 0,-26.9655 z"
       style="fill:#004394;fill-rule:evenodd"
       id="path25"
       inkscape:connector-curvature="0" />
    <path
       d="m 446.9806,358.0361 26.9656,0 0,26.9655 -26.9656,0 0,-26.9655 z"
       style="fill:#415d82;fill-rule:evenodd"
       id="path27"
       inkscape:connector-curvature="0" />
    <path
       d="m 415.6736,388.757 26.9655,0 0,26.966 -26.9655,0 0,-26.966 z"
       style="fill:#004394;fill-rule:evenodd"
       id="path29"
       inkscape:connector-curvature="0" />
    <path
       d="m 385.2027,482.0615 26.9656,0 0,26.9656 -26.9656,0 0,-26.9656 z"
       style="fill:#002e51;fill-rule:evenodd"
       id="path31"
       inkscape:connector-curvature="0" />
    <path
       d="m 415.6736,482.0615 26.9655,0 0,26.9656 -26.9655,0 0,-26.9656 z"
       style="fill:#004394;fill-rule:evenodd"
       id="path33"
       inkscape:connector-curvature="0" />
    <path
       d="m 446.9806,450.6255 26.9656,0 0,26.9659 -26.9656,0 0,-26.9659 z"
       style="fill:#415d82;fill-rule:evenodd"
       id="path35"
       inkscape:connector-curvature="0" />
    <path
       d="m 477.6758,419.943 26.9655,0 0,26.966 -26.9655,0 0,-26.966 z"
       style="fill:#415d82;fill-rule:evenodd"
       id="path37"
       inkscape:connector-curvature="0" />
    <path
       d="m 508.5567,419.943 26.9656,0 0,26.966 -26.9656,0 0,-26.966 z"
       style="fill:#415d82;fill-rule:evenodd"
       id="path39"
       inkscape:connector-curvature="0" />
    <path
       d="m 539.3809,450.6255 26.966,0 0,26.9659 -26.966,0 0,-26.9659 z"
       style="fill:#004394;fill-rule:evenodd"
       id="path41"
       inkscape:connector-curvature="0" />
    <path
       d="m 539.3809,388.757 26.9655,0 0,26.966 -26.9655,0 0,-26.966 z"
       style="fill:#415d82;fill-rule:evenodd"
       id="path43"
       inkscape:connector-curvature="0" />
    <path
       d="m 568.0982,419.943 26.9655,0 0,26.966 -26.9655,0 0,-26.966 z"
       style="fill:#002e51;fill-rule:evenodd"
       id="path45"
       inkscape:connector-curvature="0" />
    <path
       d="m 539.3809,264.5194 26.966,0 0,26.9656 -26.966,0 0,-26.9656 z"
       style="fill:#415d82;fill-rule:evenodd"
       id="path47"
       inkscape:connector-curvature="0" />
    <path
       d="m 508.5567,326.7877 26.9656,0 0,26.9655 -26.9656,0 0,-26.9655 z"
       style="fill:#415d82;fill-rule:evenodd"
       id="path49"
       inkscape:connector-curvature="0" />
    <path
       d="m 508.5567,358.0361 26.9656,0 0,26.9655 -26.9656,0 0,-26.9655 z"
       style="fill:#002e51;fill-rule:evenodd"
       id="path51"
       inkscape:connector-curvature="0" />
    <path
       d="m 508.5567,388.757 26.966,0 0,26.966 -26.966,0 0,-26.966 z"
       style="fill:#002e51;fill-rule:evenodd"
       id="path53"
       inkscape:connector-curvature="0" />
    <path
       d="m 539.3809,295.7575 26.966,0 0,26.9655 -26.966,0 0,-26.9655 z"
       style="fill:#415d82;fill-rule:evenodd"
       id="path55"
       inkscape:connector-curvature="0" />
    <path
       d="m 508.5567,233.2204 26.9656,0 0,26.9655 -26.9656,0 0,-26.9655 z"
       style="fill:#415d82;fill-rule:evenodd"
       id="path57"
       inkscape:connector-curvature="0" />
    <path
       d="m 446.9806,295.7575 26.9656,0 0,26.9655 -26.9656,0 0,-26.9655 z"
       style="fill:#415d82;fill-rule:evenodd"
       id="path59"
       inkscape:connector-curvature="0" />
    <path
       d="m 415.6736,295.7575 26.9655,0 0,26.9655 -26.9655,0 0,-26.9655 z"
       style="fill:#002e51;fill-rule:evenodd"
       id="path61"
       inkscape:connector-curvature="0" />
    <g
       id="Layer1001">
      <path
         d="m 196.1756,563.41 -1.7794,2.1708 -1.7109,-1.3027 c -1.5194,-1.0417 -3.0417,-1.9389 -4.5662,-2.6916 -1.5251,-0.7527 -3.0098,-1.3604 -4.4537,-1.8235 -1.4434,-0.4632 -2.9535,-0.8104 -4.5292,-1.0418 -1.5758,-0.2318 -3.1736,-0.3472 -4.7944,-0.3472 -6.7727,0 -12.1677,2.3444 -16.1849,7.0331 -4.2542,4.9783 -6.3307,11.9247 -6.2279,20.839 -0.0225,1.1581 0.0413,2.4749 0.1914,3.9511 0.1502,1.4758 0.3351,2.8221 0.5542,4.0375 1.2004,6.6572 3.7742,11.78 7.7206,15.3689 3.9469,3.5893 8.8435,5.3837 14.6899,5.3837 1.8526,0 3.9521,-0.2318 6.3002,-0.695 4.464,-0.9258 8.3001,-2.6048 11.5084,-5.036 l 1.5175,-1.2158 2.0971,1.9971 c -2.4936,2.5471 -5.8276,4.6024 -10.0025,6.1651 -4.1759,1.563 -8.9557,2.3443 -14.3389,2.3443 -7.6413,0 -14.1724,-2.2721 -19.5936,-6.8158 -5.4213,-4.5443 -8.8313,-10.6947 -10.2302,-18.4515 -0.2609,-1.4471 -0.4298,-2.5471 -0.5082,-3.2997 -0.0779,-0.7527 -0.1112,-1.9826 -0.1009,-3.6902 0.0103,-1.7076 0.1023,-3.2853 0.2755,-4.7324 0.1736,-1.4472 0.4716,-2.923 0.8948,-4.4284 1.8315,-7.1776 5.2031,-12.7204 10.1133,-16.6279 4.9108,-3.9074 11.1861,-5.8609 18.8273,-5.8609 10.0725,0 18.1826,2.9234 24.3307,8.7698 z m 8.4057,54.5294 -0.2745,-62.5179 8.7558,0 0.1074,28.0462 25.5719,0 -0.1079,-28.0462 8.7262,0 0.2454,62.5179 -8.7262,0 -0.1286,-31.6933 -25.5714,0 0.1281,31.6933 -8.7262,0 z m 45.9829,0 28.7707,-65.3255 29.3189,65.3255 -8.9848,0.0145 -8.477,-18.6832 -29.4357,0 -8.1218,18.6832 -3.0703,-0.0145 z m 25.7821,-51.5628 -13.2672,30.1156 26.5991,0 -13.3319,-30.1156 z m 35.4829,51.5628 -0.2454,-62.5179 20.2313,0 c 2.3157,0 4.7178,0.3186 7.2058,0.9554 3.3983,0.8681 6.2809,2.4889 8.6535,4.8914 2.3692,2.3876 3.8267,5.0938 4.3668,8.0895 0.3759,2.0839 0.2389,4.2115 -0.4064,6.4109 -0.8967,3.0539 -2.57,5.5719 -5.0543,7.5254 -2.4814,1.968 -5.928,3.4006 -10.3197,4.3269 l -2.5424,0.3473 18.4406,29.9565 -10.3733,0.0146 -19.3838,-33.3427 8.5962,0 c 7.1777,0 11.5079,-3.1116 12.9884,-9.3489 0.458,-1.9535 0.5087,-3.922 0.1535,-5.89 -0.4458,-2.4744 -1.4716,-4.6311 -3.0793,-6.4832 -1.6076,-1.8526 -3.5076,-3.0825 -5.7065,-3.7193 -2.1989,-0.6368 -4.1379,-0.9549 -5.8164,-0.9549 l -9.2184,0 0.3251,59.7535 -8.8153,-0.0145 z m 47.98,0 -0.2745,-62.5179 8.7558,0 0.236,59.7394 22.9957,0 -0.0198,2.7785 -31.6932,0 z m 35.9972,0 -0.2454,-62.5179 30.1302,0 -0.0198,2.7789 -21.3748,0 0.107,25.875 19.5082,0 -0.0207,2.7789 -19.4786,0 0.1112,28.3066 21.3458,0 0.0671,2.7785 -30.1302,0 z m 34.9109,-12.7642 2.8118,-0.7813 0.2989,0.6945 0.0915,0.5068 0.5664,1.2154 c 3.2918,5.9768 7.6497,8.958 13.1202,8.958 1.2154,0 2.6208,-0.2313 4.2308,-0.6945 2.3636,-0.695 4.2392,-2.0117 5.5972,-3.9511 1.3749,-1.9244 2.0981,-4.2547 2.1867,-6.9749 0.0324,-0.4632 0.0174,-1.0277 -0.045,-1.6936 -0.0624,-0.6654 -0.1403,-1.259 -0.2342,-1.7798 -0.8742,-4.8479 -4.3499,-8.5531 -10.4216,-11.0856 -3.0079,-1.2731 -5.7924,-2.5903 -8.3531,-3.9507 -2.5612,-1.3603 -4.6273,-3.1111 -6.1979,-5.2387 -1.5729,-2.1416 -2.5945,-4.5151 -3.0642,-7.1199 -0.3965,-2.1999 -0.3341,-4.3415 0.1826,-6.4546 0.5161,-2.1126 1.533,-4.0956 3.052,-5.9477 3.3448,-3.922 8.1124,-5.8901 14.3065,-5.8901 6.8886,0 11.9894,2.6048 15.3018,7.8149 l 0.6696,1.3022 -3.2387,1.3026 c -1.2956,-2.6916 -3.3449,-4.7469 -6.15,-6.1795 -1.9695,-0.9695 -3.9399,-1.4618 -5.9079,-1.4618 -3.2993,0 -6.1092,1.2736 -8.4282,3.8207 -2.3219,2.5325 -3.205,5.3401 -2.6518,8.408 0.5612,3.1116 2.3439,5.456 5.3467,7.0191 1.5931,0.8104 3.4513,1.5626 5.5737,2.2576 2.122,0.6945 4.5898,1.7798 7.4029,3.2561 2.8104,1.4613 5.1754,3.502 7.0923,6.1068 1.9169,2.6049 3.1548,5.456 3.7184,8.5817 0.4486,2.4894 0.4331,4.8915 -0.0488,7.1927 -0.4801,2.3153 -1.5054,4.5728 -3.0769,6.7727 -2.1806,2.9957 -5.1336,5.0796 -8.8609,6.2373 -2.3538,0.7522 -4.7174,1.1285 -7.0904,1.1285 -3.4157,0 -6.4283,-0.7381 -9.0387,-2.2139 -2.6109,-1.4763 -4.8033,-3.6034 -6.578,-6.3823 -1.2017,-1.8521 -1.9234,-3.4443 -2.1637,-4.7756 z"
         style="fill:#002e51;fill-rule:evenodd"
         id="path64"
         inkscape:connector-curvature="0" />
      <path
         d="m 477.4153,617.5353 -0.2745,-62.5179 8.7558,0 0.1074,28.0463 25.5719,0 -0.1079,-28.0463 8.7262,0 0.2454,62.5179 -8.7262,0 -0.1286,-31.6932 -25.5714,0 0.1281,31.6932 -8.7262,0 z m 50.3033,-21.5339 c -0.1201,-0.3473 -0.2445,-0.7959 -0.3726,-1.3458 -0.1281,-0.55 -0.2496,-1.1431 -0.3646,-1.7799 -0.7513,-4.1679 -0.7043,-8.4808 0.1422,-12.9377 0.8456,-4.4574 2.4875,-8.5962 4.9243,-12.4169 2.748,-4.3415 6.2875,-7.6699 10.6164,-9.9857 4.3293,-2.3152 9.4169,-3.4729 15.2633,-3.4729 8.2203,0 15.2591,2.3589 21.1168,7.0768 5.8581,4.7174 9.5018,11.0415 10.9321,18.9723 0.2398,1.3313 0.3989,2.3735 0.4768,3.1257 0.0779,0.7527 0.1079,1.8812 0.0896,3.3866 -0.0108,3.4729 -0.4308,6.599 -1.2618,9.3775 -1.4814,5.2678 -3.8835,9.6816 -7.2063,13.2418 -3.3242,3.5597 -7.2283,6.0637 -11.7139,7.5108 -4.4861,1.4472 -8.8417,2.1708 -13.0673,2.1708 -7.2358,0 -13.4534,-2.0553 -18.6513,-6.165 -5.1988,-4.1102 -8.8398,-9.6962 -10.9237,-16.7584 z m 38.336,18.0605 c 5.2082,-2.2575 9.08,-6.6277 11.6158,-13.1113 2.694,-6.8882 3.2477,-14.7322 1.6612,-23.5306 -0.5218,-2.8944 -1.4622,-5.7019 -2.8207,-8.4226 -1.8465,-3.8207 -4.4593,-6.8309 -7.837,-9.0303 -3.3776,-2.1998 -7.0059,-3.2998 -10.8843,-3.2998 -2.7207,0 -5.2842,0.55 -7.6905,1.6499 -4.1337,1.7944 -7.5226,5.1519 -10.1668,10.072 -2.8127,5.2678 -4.2008,11.3752 -4.1637,18.3215 -0.023,1.1576 0.0361,2.2866 0.176,3.3861 0.1408,1.0999 0.3411,2.3735 0.6025,3.8206 0.0835,0.4632 0.1459,0.8104 0.1877,1.0422 0.3238,1.7945 0.9,3.7048 1.7283,5.7305 0.1886,0.4055 0.7104,1.534 1.5654,3.3866 1.7367,3.5311 4.2692,6.3387 7.5972,8.4226 3.3274,2.084 6.9308,3.1257 10.8096,3.1257 1.3313,0 2.6391,-0.13 3.9234,-0.3909 1.2844,-0.2604 2.5162,-0.6508 3.6959,-1.1722 z m 30.674,3.4734 -0.2454,-62.5179 19.884,0 c 1.0422,0 2.1572,0.0869 3.3467,0.2605 1.1891,0.1736 2.3594,0.4054 3.5114,0.6949 2.8672,0.8104 5.3063,2.3008 7.3241,4.5006 2.0173,2.1999 3.2843,4.7324 3.8038,7.6122 0.4171,2.3153 0.2374,4.6888 -0.542,7.1054 -1.1713,3.4589 -3.2299,6.1651 -6.1801,8.1045 -2.9384,1.9244 -6.6418,2.8943 -11.0992,2.8943 l -11.201,0 0.213,31.3601 -8.8153,-0.0146 z m 29.1424,-43.0388 c 0.2646,-1.0999 0.4059,-2.243 0.4181,-3.4588 0.0126,-1.2154 -0.0648,-2.2867 -0.229,-3.1984 -0.5636,-3.1257 -1.8733,-5.5715 -3.9333,-7.3659 -2.0572,-1.7798 -4.5057,-2.677 -7.3424,-2.677 l -9.5657,0 0.1953,25.8027 9.5342,-0.0146 c 2.6485,0 4.9647,-0.7958 6.9379,-2.373 1.9704,-1.5921 3.2885,-3.8352 3.9849,-6.715 z m 11.7589,43.0388 -0.2454,-62.5179 19.8841,0 c 1.0422,0 2.1571,0.0869 3.3467,0.2605 1.1891,0.1736 2.3594,0.4054 3.5114,0.6949 2.8671,0.8104 5.3063,2.3008 7.3241,4.5006 2.0173,2.1999 3.2843,4.7324 3.8037,7.6122 0.4172,2.3153 0.2375,4.6888 -0.542,7.1054 -1.1712,3.4589 -3.2298,6.1651 -6.18,8.1045 -2.9385,1.9244 -6.6418,2.8943 -11.0992,2.8943 l -11.201,0 0.213,31.3601 -8.8154,-0.0146 z m 29.1424,-43.0388 c 0.2647,-1.0999 0.4059,-2.243 0.4181,-3.4588 0.0127,-1.2154 -0.0647,-2.2867 -0.229,-3.1984 -0.5635,-3.1257 -1.8732,-5.5715 -3.9332,-7.3659 -2.0572,-1.7798 -4.5058,-2.677 -7.3424,-2.677 l -9.5657,0 0.1952,25.8027 9.5343,-0.0146 c 2.6484,0 4.9646,-0.7958 6.9378,-2.373 1.9704,-1.5921 3.2886,-3.8352 3.9849,-6.715 z m 11.759,43.0388 -0.2454,-62.5179 30.1301,0 -0.0197,2.779 -21.3748,0 0.1065,25.8749 19.5082,0 -0.0202,2.7789 -19.4786,0 0.1112,28.3067 21.3458,0 0.0671,2.7784 -30.1302,0 z"
         style="fill:#004394;fill-rule:evenodd"
         id="path66"
         inkscape:connector-curvature="0" />
    </g>
    <path
       d="m 175.7837,673.7763 0,-12.4095 -10.023,0 0,12.4095 -3.4435,0 0,-24.5463 3.4435,0 0,11.0457 10.023,0 0,-11.0457 3.4433,0 0,24.5463 -3.4433,0 z m 14.7504,0 0,-24.5463 3.4435,0 0,24.5463 -3.4435,0 z m 22.5578,-12.2732 -4.3636,0 0,12.2732 -3.4435,0 0,-24.5463 7.8071,0 c 1.7728,0 3.2446,0.3806 4.415,1.142 1.1704,0.7614 1.9715,1.8241 2.4035,3.1876 0.1817,0.523 0.2727,1.1251 0.2727,1.8071 0,0.4317 -0.0114,0.75 -0.034,0.9544 -0.023,0.2047 -0.1024,0.4887 -0.2387,0.8524 -0.432,1.3637 -1.2331,2.4262 -2.4035,3.1875 -1.1704,0.7614 -2.6422,1.1421 -4.415,1.1421 z m -0.6137,-11.1821 -3.7499,0 0,10.1594 3.7499,0 c 1.2955,0 2.3695,-0.4604 3.2219,-1.3808 0.8521,-0.9204 1.2784,-2.1648 1.2784,-3.7329 0,-1.5228 -0.4263,-2.7445 -1.2784,-3.6649 -0.8524,-0.9204 -1.9264,-1.3808 -3.2219,-1.3808 z m 18.0919,3.1022 0,20.3531 -1.0571,0 0,-24.5463 1.7615,0.0113 14.5346,18.1199 0,-18.1312 1.0911,0 0,24.9837 -16.3301,-20.7905 z m 43.6946,20.1484 c -1.6364,0.523 -3.2615,0.7844 -4.875,0.7844 -2.8412,0 -5.307,-0.8071 -7.3981,-2.4208 -2.0909,-1.6135 -3.5113,-3.8069 -4.2614,-6.5795 -0.1593,-0.591 -0.2786,-1.1707 -0.358,-1.7388 -0.0796,-0.5683 -0.1193,-1.2047 -0.1193,-1.9091 0,-3.7729 1.1704,-6.8638 3.5115,-9.273 2.3409,-2.4092 5.2728,-3.6139 8.7957,-3.6139 1.5227,0 3.0682,0.25 4.6366,0.7501 2.4318,0.7727 4.409,2.2501 5.9318,4.4319 1.5227,2.1819 2.2841,4.7047 2.2841,7.5685 0,2.8863 -0.75,5.4091 -2.2498,7.5683 -1.5001,2.1591 -3.4662,3.6365 -5.8981,4.4319 z m -4.6023,-23.6596 c -2.4775,0 -4.523,1 -6.1367,3.0055 -1.7499,2.1592 -2.6249,5.097 -2.6249,8.8073 0,0.4773 0.034,1.0001 0.102,1.5681 0.0683,0.574 0.1593,1.1194 0.273,1.6421 0.5908,2.6422 1.6305,4.6537 3.1193,6.0401 1.4887,1.3921 3.2445,2.0852 5.2673,2.0852 2.4318,0 4.466,-0.9885 6.1024,-2.9716 1.7728,-2.1365 2.6592,-5.006 2.6592,-8.6026 0,-3.5966 -0.8864,-6.4661 -2.6592,-8.6026 -1.6364,-1.9828 -3.6706,-2.9715 -6.1024,-2.9715 z m 29.2053,0.409 0,23.4553 -3.4092,0 0,-23.4553 -4.466,0 0,-1.091 12.2732,0 0,1.091 -4.398,0 z m 13.0119,23.4553 0,-24.5463 11.8301,0 0,1.091 -8.3866,0 0,10.1934 7.6366,0 0,1.091 -7.6366,0 0,11.0798 8.3866,0 0,1.0911 -11.8301,0 z m 33.6714,0 -7.5685,-13.0572 3.3752,0 c 1.6818,0 2.9832,-0.4604 3.9036,-1.3808 0.9204,-0.9204 1.3807,-2.2102 1.3807,-3.8693 0,-1.4774 -0.5457,-2.7048 -1.6364,-3.6822 -1.0911,-0.9771 -2.4775,-1.4658 -4.1593,-1.4658 l -3.6136,0 0,23.4553 -3.4435,0 0,-24.5463 7.9435,0 c 1.4091,0 2.6762,0.233 3.8013,0.699 1.125,0.466 2.0284,1.0964 2.7102,1.8921 0.4773,0.5454 0.841,1.1648 1.091,1.8578 0.25,0.6934 0.375,1.3808 0.375,2.0628 0,1.8865 -0.784,3.3979 -2.3524,4.534 -1.0228,0.7274 -2.3409,1.2731 -3.9547,1.6365 l -0.9887,0.1363 7.1935,11.7278 -4.0569,0 z m 30.1263,-0.017 -3.3242,-7.2788 -11.5685,0 -3.2445,7.2958 -1.1931,0 11.3868,-25.6144 11.4208,25.6144 -3.4773,-0.017 z m -9.1366,-20.2281 -5.3071,11.8585 10.5231,0 -5.216,-11.8585 z m 28.5236,7.9719 -4.3637,0 0,12.2732 -3.4435,0 0,-24.5463 7.8072,0 c 1.7728,0 3.2445,0.3806 4.4149,1.142 1.1705,0.7614 1.9715,1.8241 2.4035,3.1876 0.1817,0.523 0.2727,1.1251 0.2727,1.8071 0,0.4317 -0.0113,0.75 -0.034,0.9544 -0.0229,0.2047 -0.1023,0.4887 -0.2387,0.8524 -0.432,1.3637 -1.233,2.4262 -2.4035,3.1875 -1.1704,0.7614 -2.6421,1.1421 -4.4149,1.1421 z m -0.6137,-11.1821 -3.75,0 0,10.1594 3.75,0 c 1.2954,0 2.3695,-0.4604 3.2218,-1.3808 0.8521,-0.9204 1.2785,-2.1648 1.2785,-3.7329 0,-1.5228 -0.4264,-2.7445 -1.2785,-3.6649 -0.8523,-0.9204 -1.9264,-1.3808 -3.2218,-1.3808 z m 17.0348,23.4553 0,-24.5463 3.4435,0 0,24.5463 -3.4435,0 z m 30.8764,-0.017 -3.3242,-7.2788 -11.5685,0 -3.2445,7.2958 -1.1931,0 11.3867,-25.6144 11.4208,25.6144 -3.4772,-0.017 z m -9.1367,-20.2281 -5.307,11.8585 10.5231,0 -5.2161,-11.8585 z m 56.6156,20.2281 -3.3242,-7.2788 -11.5685,0 -3.2445,7.2958 -1.1931,0 11.3867,-25.6144 11.4208,25.6144 -3.4772,-0.017 z m -9.1367,-20.2281 -5.307,11.8585 10.5231,0 -5.2161,-11.8585 z m 25.6598,20.6825 -7.8752,-24.9837 3.5059,0 5.6081,17.7961 5.5627,-17.7905 1.125,-0.006 -7.9265,24.9837 z m 32.4105,-0.4544 -3.3242,-7.2788 -11.5685,0 -3.2445,7.2958 -1.1931,0 11.3868,-25.6144 11.4208,25.6144 -3.4773,-0.017 z m -9.1366,-20.2281 -5.3071,11.8585 10.5231,0 -5.216,-11.8585 z m 21.7734,-0.108 0,20.3531 -1.057,0 0,-24.5463 1.7615,0.0113 14.5346,18.1199 0,-18.1312 1.0911,0 0,24.9837 -16.3302,-20.7905 z m 40.2855,20.5748 0,2.1874 c 0,1.7558 -0.9204,2.7729 -2.7615,3.0456 l -0.3751,0 0,-1.3295 0.2387,0 c 0.841,-0.0909 1.2957,-0.5113 1.3638,-1.2557 l -0.0341,-0.2787 -1.7047,0 0,-2.3862 c -3.0229,-0.341 -5.5001,-1.6477 -7.4319,-3.9206 -1.9321,-2.2728 -2.8978,-5.1139 -2.8978,-8.5232 0,-4.0226 1.233,-7.1195 3.6989,-9.29 2.4658,-2.1704 5.8467,-3.2558 10.1423,-3.2558 0.5684,0 1.1308,0.057 1.6875,0.1706 0.557,0.1137 1.3694,0.4091 2.4378,0.8864 1.2728,0.5908 2.4318,1.3751 3.4773,2.3522 l -0.6818,0.8524 -0.716,-0.5114 c -1.2274,-0.841 -2.3638,-1.4204 -3.4092,-1.7388 -1.2955,-0.409 -2.5342,-0.6137 -3.716,-0.6137 -2.6818,0 -4.841,0.9718 -6.4774,2.9149 -1.6365,1.9434 -2.4548,4.6536 -2.4548,8.1312 0,3.5456 0.8183,6.2955 2.4548,8.2502 1.6364,1.9545 3.8409,2.9319 6.6138,2.9319 0.591,0 1.2101,-0.0456 1.8581,-0.1363 0.6477,-0.091 1.3011,-0.2387 1.9601,-0.4434 1.0911,-0.318 2.1592,-0.8637 3.2046,-1.6364 l 0.5797,-0.4771 0.8524,0.7841 c -0.8864,0.892 -1.9888,1.6251 -3.3072,2.1931 -1.3181,0.5684 -2.8522,0.9318 -4.6023,1.0968 z m 34.558,-0.2387 -3.3242,-7.2788 -11.5685,0 -3.2442,7.2958 -1.1931,0 11.3865,-25.6144 11.4207,25.6144 -3.4772,-0.017 z m -9.1366,-20.2281 -5.3071,11.8585 10.5231,0 -5.216,-11.8585 z m 30.0237,20.2451 -9.3073,0 0,-24.5463 9.4096,0 c 2.9319,0 5.4091,1.1137 7.4319,3.3411 2.0228,2.2272 3.0342,5.0797 3.0342,8.557 0,1.2274 -0.159,2.5682 -0.4774,4.0229 -0.6134,2.6819 -1.8295,4.79 -3.6476,6.3241 -1.8184,1.5341 -3.9662,2.3012 -6.4434,2.3012 z m 0,-23.4553 -5.8638,0 0,22.3642 5.8638,0 c 1.8864,0 3.4659,-0.909 4.7386,-2.7272 1.4091,-2.0228 2.1138,-4.8297 2.1138,-8.4209 0,-3.6136 -0.7047,-6.4431 -2.1138,-8.4889 -1.25,-1.8181 -2.8295,-2.7272 -4.7386,-2.7272 z m 37.4558,23.4383 -3.3241,-7.2788 -11.5685,0 -3.2446,7.2958 -1.1931,0 11.3868,-25.6144 11.4208,25.6144 -3.4773,-0.017 z m -9.1366,-20.2281 -5.307,11.8585 10.523,0 -5.216,-11.8585 z"
       style="fill:#002e51;fill-rule:evenodd;stroke:#1e3a62;stroke-width:0.21600001;stroke-linecap:butt;stroke-linejoin:miter;stroke-dasharray:none"
       id="path68"
       inkscape:connector-curvature="0" />
  </g>
</svg>
